<svg width="24" height="30" viewBox="0 0 24 30" fill="none" xmlns="http://www.w3.org/2000/svg">
<path d="M2.37315 7.87977V12.3418L1.99341 27.5317L13.6706 22.9747L13.101 13.9557L14.2402 8.44939L11.677 5.50635L2.37315 7.87977Z" fill="#466696" stroke="#000041" stroke-width="0.189873"/>
<path d="M1.94855 7.5948L2.08355 27.1572" stroke="#FFB11B" stroke-width="3.41772" stroke-linecap="round"/>
<path d="M22.893 3.58794C23.517 2.65558 23.4327 1.54062 22.7047 1.0976C21.9767 0.65459 20.8807 1.05129 20.2568 1.98365L12.5815 13.4521C11.9575 14.3845 12.0418 15.4994 12.7698 15.9424C13.4978 16.3854 14.5937 15.9887 15.2177 15.0564L22.893 3.58794Z" fill="#FFB11B" stroke="#FFB11B" stroke-width="0.56962" stroke-linecap="round"/>
<path d="M22.6119 21.2647C23.1871 21.8995 23.0317 23.0739 22.2646 23.888C21.4976 24.702 20.4094 24.8474 19.8341 24.2127L12.7071 16.3493C12.1318 15.7146 12.2873 14.5401 13.0543 13.7261C13.8214 12.912 14.9095 12.7666 15.4848 13.4014L22.6119 21.2647Z" fill="#FFB11B" stroke="#FFB11B" stroke-width="0.56962" stroke-linecap="round"/>
<path d="M2.84782 5.76591C1.77463 6.06858 0.904637 7.21787 0.904637 8.33293C0.904637 9.44799 1.77463 10.1066 2.84782 9.80388L10.4317 7.665C11.9322 7.24183 13.1485 8.16259 13.1485 9.72157C13.1485 11.2805 11.9322 12.8874 10.4317 13.3106L2.84782 15.4495C1.77463 15.7521 0.904637 16.9014 0.904637 18.0165C0.904637 19.1315 1.77463 19.7901 2.84782 19.4874L10.4317 17.3485C14.0786 16.32 17.0349 12.4146 17.0349 8.6255C17.0349 4.8364 14.0786 2.59851 10.4317 3.62703L2.84782 5.76591Z" fill="#000041" stroke="#FFB11B" stroke-linecap="round"/>
<path d="M2.84794 15.4493C1.77475 15.7519 0.904759 16.9012 0.904759 18.0163C0.904759 19.1313 1.77475 19.7899 2.84794 19.4872L10.4318 17.3483C11.9323 16.9252 13.1487 17.8459 13.1487 19.4049C13.1487 20.9639 11.9323 22.5707 10.4318 22.9939L2.84794 25.1328C1.77475 25.4355 0.904759 26.5848 0.904759 27.6998C0.904759 28.8149 1.77475 29.4734 2.84794 29.1708L10.4318 27.0319C14.0787 26.0034 17.035 22.0979 17.035 18.3088C17.035 14.5198 14.0787 12.2819 10.4318 13.3104L2.84794 15.4493Z" fill="#000041" stroke="#FFB11B" stroke-linecap="round"/>
</svg>
