<svg width="42" height="42" viewBox="0 0 42 42" fill="none" xmlns="http://www.w3.org/2000/svg">
<g filter="url(#filter0_d_300_1387)">
<path d="M14.5153 13.4073C15.8123 12.1116 17.1094 10.8139 18.4046 9.51613C18.7939 9.13721 19.2988 8.90751 19.8327 8.8761H20.1623C20.7077 8.90751 21.2126 9.13721 21.5923 9.51613C26.0155 13.9374 30.429 18.3489 34.8406 22.7604C35.5306 23.4515 35.6944 24.5097 35.2531 25.3696C35.0372 25.8192 34.4513 25.9134 34.1005 25.5679L32.4353 23.903L21.0276 12.4905C20.4514 11.9251 19.5455 11.9251 18.9789 12.4905L7.57117 23.903L5.90598 25.5679C5.55521 25.9134 4.96931 25.8192 4.74382 25.3696C4.30053 24.5097 4.47592 23.4515 5.15433 22.7604C5.95995 21.9574 6.76556 21.1525 7.57117 20.3475C9.38669 18.5374 11.2003 16.7253 13.012 14.9112H13.0139C13.515 14.4106 14.0161 13.9099 14.5153 13.4073Z" fill="#000041"/>
<path d="M14.5153 13.4073C15.8123 12.1116 17.1094 10.8139 18.4046 9.51613C18.7939 9.13721 19.2988 8.90751 19.8327 8.8761H20.1623C20.7077 8.90751 21.2126 9.13721 21.5923 9.51613C26.0155 13.9374 30.429 18.3489 34.8406 22.7604C35.5306 23.4515 35.6944 24.5097 35.2531 25.3696C35.0372 25.8192 34.4513 25.9134 34.1005 25.5679L32.4353 23.903L21.0276 12.4905C20.4514 11.9251 19.5455 11.9251 18.9789 12.4905L7.57117 23.903L5.90598 25.5679C5.55521 25.9134 4.96931 25.8192 4.74382 25.3696C4.30053 24.5097 4.47592 23.4515 5.15433 22.7604C5.95995 21.9574 6.76556 21.1525 7.57117 20.3475C9.38669 18.5374 11.2003 16.7253 13.012 14.9112H13.0139C13.515 14.4106 14.0161 13.9099 14.5153 13.4073Z" fill="black" fill-opacity="0.2"/>
<path d="M32.4355 23.903V35.5236C32.4355 37.1688 31.1287 38.4999 29.5137 38.4999H18.9077V28.8701C18.7632 26.8459 17.1076 25.2753 15.1128 25.2753C13.1181 25.2753 11.4702 26.8459 11.3257 28.8701V38.4999H10.4834C8.878 38.4999 7.57129 37.1688 7.57129 35.5236V23.903L18.979 12.4905C19.5456 11.9251 20.4515 11.9251 21.0277 12.4905L32.4355 23.903ZM29.6582 32.9242C30.0996 32.9242 30.4388 32.5257 30.3771 32.0761C30.275 31.3418 29.6582 30.798 28.9278 30.798H28.8661V27.8943C28.8449 26.4376 27.6827 25.2753 26.2527 25.2753C24.8226 25.2753 23.6604 26.4376 23.6392 27.8943V30.8019C22.9454 30.8392 22.3711 31.3693 22.2709 32.0761C22.2092 32.5257 22.5599 32.9242 23.0013 32.9242H29.6582Z" fill="#FC7A03"/>
<path d="M30.377 32.0759C30.4387 32.5255 30.0994 32.9241 29.6581 32.9241H23.0012C22.5598 32.9241 22.2091 32.5255 22.2707 32.0759C22.3709 31.3692 22.9453 30.8391 23.6391 30.8018C23.6661 30.7979 23.6931 30.7979 23.722 30.7979H28.9276C29.6581 30.7979 30.2748 31.3417 30.377 32.0759Z" fill="#000041"/>
<path d="M30.377 32.0759C30.4387 32.5255 30.0994 32.9241 29.6581 32.9241H23.0012C22.5598 32.9241 22.2091 32.5255 22.2707 32.0759C22.3709 31.3692 22.9453 30.8391 23.6391 30.8018C23.6661 30.7979 23.6931 30.7979 23.722 30.7979H28.9276C29.6581 30.7979 30.2748 31.3417 30.377 32.0759Z" fill="black" fill-opacity="0.2"/>
<path d="M28.866 27.8944V30.7981H23.722C23.6931 30.7981 23.6661 30.7981 23.6392 30.802V27.8944C23.6604 26.4377 24.8225 25.2754 26.2526 25.2754C27.6826 25.2754 28.8448 26.4377 28.866 27.8944Z" fill="#FFFDFA"/>
<path d="M18.9072 28.8701V38.5H11.3252V28.8701C11.4697 26.846 13.1272 25.2754 15.1124 25.2754C17.0975 25.2754 18.7627 26.846 18.9072 28.8701Z" fill="#000041"/>
<path d="M18.9072 28.8701V38.5H11.3252V28.8701C11.4697 26.846 13.1272 25.2754 15.1124 25.2754C17.0975 25.2754 18.7627 26.846 18.9072 28.8701Z" fill="black" fill-opacity="0.2"/>
<path d="M18.0232 2.09684C18.5281 2.49538 18.8558 3.0824 18.8558 3.74206C18.8558 4.40172 18.5281 4.98874 18.0232 5.38729C17.5298 5.78583 16.9015 5.98412 16.2751 5.98412C15.6487 5.98412 15.0204 5.78583 14.5251 5.38729C14.0317 4.98874 13.7021 4.40172 13.7021 3.74206C13.7021 3.0824 14.0317 2.49538 14.5251 2.09684C15.0204 1.69829 15.6564 1.5 16.2751 1.5C16.8938 1.5 17.5298 1.69829 18.0232 2.09684Z" fill="#FFFDFA"/>
<path d="M14.5153 13.1303V13.4071C14.0161 13.9097 13.515 14.4104 13.0139 14.911H7.71578C7.6676 14.911 7.61942 14.909 7.57123 14.9032C6.82729 14.8305 6.25488 14.1924 6.25488 13.4228V13.1303C6.25488 11.4949 7.5616 10.1658 9.16704 10.1658H11.5935C13.2086 10.1658 14.5153 11.4949 14.5153 13.1303Z" fill="#FFFDFA"/>
<path d="M7.71584 14.9112H13.0121C11.2004 16.7252 9.38681 18.5373 7.57129 20.3475V14.9033C7.61947 14.9092 7.66765 14.9112 7.71584 14.9112Z" fill="#FC7A03"/>
<path d="M10.7823 5.45996C11.7594 5.45996 12.5612 6.27668 12.5612 7.27206C12.5612 8.26745 11.7594 9.08613 10.7823 9.08613C9.80515 9.08613 9.00146 8.26745 9.00146 7.27206C9.00146 6.27668 9.80515 5.45996 10.7823 5.45996Z" fill="#FFFDFA"/>
<path d="M10.7823 9.08417C11.7648 9.08417 12.5612 8.27286 12.5612 7.27206C12.5612 6.27127 11.7648 5.45996 10.7823 5.45996C9.79986 5.45996 9.00342 6.27127 9.00342 7.27206C9.00342 8.27286 9.79986 9.08417 10.7823 9.08417Z" stroke="#000041" stroke-width="0.75" stroke-linecap="round" stroke-linejoin="round"/>
<path d="M10.7823 9.08417C11.7648 9.08417 12.5612 8.27286 12.5612 7.27206C12.5612 6.27127 11.7648 5.45996 10.7823 5.45996C9.79986 5.45996 9.00342 6.27127 9.00342 7.27206C9.00342 8.27286 9.79986 9.08417 10.7823 9.08417Z" stroke="black" stroke-opacity="0.2" stroke-width="0.75" stroke-linecap="round" stroke-linejoin="round"/>
<path d="M34.8428 22.7603C35.5327 23.4513 35.6966 24.5095 35.2533 25.3694" stroke="#000041" stroke-width="0.75" stroke-linecap="round" stroke-linejoin="round"/>
<path d="M34.8428 22.7603C35.5327 23.4513 35.6966 24.5095 35.2533 25.3694" stroke="black" stroke-opacity="0.2" stroke-width="0.75" stroke-linecap="round" stroke-linejoin="round"/>
<path d="M34.1007 25.5677L21.0278 12.4904" stroke="#000041" stroke-width="0.75" stroke-linecap="round" stroke-linejoin="round"/>
<path d="M34.1007 25.5677L21.0278 12.4904" stroke="black" stroke-opacity="0.2" stroke-width="0.75" stroke-linecap="round" stroke-linejoin="round"/>
<path d="M5.90631 25.5678C5.55746 25.9133 4.96964 25.8191 4.74414 25.3695" stroke="#000041" stroke-width="0.75" stroke-linecap="round" stroke-linejoin="round"/>
<path d="M5.90631 25.5678C5.55746 25.9133 4.96964 25.8191 4.74414 25.3695" stroke="black" stroke-opacity="0.2" stroke-width="0.75" stroke-linecap="round" stroke-linejoin="round"/>
<path d="M5.15433 22.7603C4.47592 23.4513 4.30053 24.5095 4.74381 25.3694" stroke="#000041" stroke-width="0.75" stroke-linecap="round" stroke-linejoin="round"/>
<path d="M5.15433 22.7603C4.47592 23.4513 4.30053 24.5095 4.74381 25.3694" stroke="black" stroke-opacity="0.2" stroke-width="0.75" stroke-linecap="round" stroke-linejoin="round"/>
<path d="M5.90576 25.5677L18.9787 12.4904" stroke="#000041" stroke-width="0.75" stroke-linecap="round" stroke-linejoin="round"/>
<path d="M5.90576 25.5677L18.9787 12.4904" stroke="black" stroke-opacity="0.2" stroke-width="0.75" stroke-linecap="round" stroke-linejoin="round"/>
<path d="M29.6582 32.9241H23.0032C22.5599 32.9241 22.211 32.5255 22.2727 32.0759C22.3749 31.3417 22.9935 30.7979 23.724 30.7979H28.9296C29.6601 30.7979 30.2768 31.3436 30.3809 32.0759C30.4426 32.5275 30.1034 32.9241 29.6601 32.9241H29.6582Z" stroke="#108CFF" stroke-width="0.75" stroke-linecap="round" stroke-linejoin="round"/>
<path d="M13.0139 14.911H7.71578C6.90246 14.911 6.25488 14.2396 6.25488 13.4228V13.1303C6.25488 11.4949 7.5616 10.1658 9.16511 10.1658H11.5935C13.2086 10.1658 14.5153 11.4969 14.5153 13.1303V13.413" stroke="#000041" stroke-width="0.75" stroke-linecap="round" stroke-linejoin="round"/>
<path d="M13.0139 14.911H7.71578C6.90246 14.911 6.25488 14.2396 6.25488 13.4228V13.1303C6.25488 11.4949 7.5616 10.1658 9.16511 10.1658H11.5935C13.2086 10.1658 14.5153 11.4969 14.5153 13.1303V13.413" stroke="black" stroke-opacity="0.2" stroke-width="0.75" stroke-linecap="round" stroke-linejoin="round"/>
<path d="M34.8427 22.7604C30.4291 18.3489 26.0175 13.9374 21.5944 9.51613C21.2147 9.13918 20.7097 8.90751 20.1643 8.8761H20.0005" stroke="#000041" stroke-width="0.75" stroke-linecap="round" stroke-linejoin="round"/>
<path d="M34.8427 22.7604C30.4291 18.3489 26.0175 13.9374 21.5944 9.51613C21.2147 9.13918 20.7097 8.90751 20.1643 8.8761H20.0005" stroke="black" stroke-opacity="0.2" stroke-width="0.75" stroke-linecap="round" stroke-linejoin="round"/>
<path d="M5.1543 22.7604C9.57746 18.3489 13.991 13.9374 18.4026 9.51613C18.7938 9.13918 19.2969 8.90751 19.8327 8.8761H19.9965" stroke="#000041" stroke-width="0.75" stroke-linecap="round" stroke-linejoin="round"/>
<path d="M5.1543 22.7604C9.57746 18.3489 13.991 13.9374 18.4026 9.51613C18.7938 9.13918 19.2969 8.90751 19.8327 8.8761H19.9965" stroke="black" stroke-opacity="0.2" stroke-width="0.75" stroke-linecap="round" stroke-linejoin="round"/>
<path d="M21.0278 12.4905C20.4515 11.9251 19.5457 11.9251 18.981 12.4905" stroke="#000041" stroke-width="0.75" stroke-linecap="round" stroke-linejoin="round"/>
<path d="M21.0278 12.4905C20.4515 11.9251 19.5457 11.9251 18.981 12.4905" stroke="black" stroke-opacity="0.2" stroke-width="0.75" stroke-linecap="round" stroke-linejoin="round"/>
<path d="M32.4355 35.5236C32.4355 37.1688 31.1288 38.4999 29.5137 38.4999" stroke="#000041" stroke-width="0.75" stroke-linecap="round" stroke-linejoin="round"/>
<path d="M32.4355 35.5236C32.4355 37.1688 31.1288 38.4999 29.5137 38.4999" stroke="black" stroke-opacity="0.2" stroke-width="0.75" stroke-linecap="round" stroke-linejoin="round"/>
<path d="M29.5136 38.4979H10.4834" stroke="#000041" stroke-width="0.75" stroke-linecap="round" stroke-linejoin="round"/>
<path d="M29.5136 38.4979H10.4834" stroke="black" stroke-opacity="0.2" stroke-width="0.75" stroke-linecap="round" stroke-linejoin="round"/>
<path d="M32.4355 23.903V35.5236" stroke="#000041" stroke-width="0.75" stroke-linecap="round" stroke-linejoin="round"/>
<path d="M32.4355 23.903V35.5236" stroke="black" stroke-opacity="0.2" stroke-width="0.75" stroke-linecap="round" stroke-linejoin="round"/>
<path d="M7.57129 35.5236C7.57129 37.1688 8.878 38.4999 10.4815 38.4999" stroke="#000041" stroke-width="0.75" stroke-linecap="round" stroke-linejoin="round"/>
<path d="M7.57129 35.5236C7.57129 37.1688 8.878 38.4999 10.4815 38.4999" stroke="black" stroke-opacity="0.2" stroke-width="0.75" stroke-linecap="round" stroke-linejoin="round"/>
<path d="M7.57129 23.903V35.5236" stroke="#000041" stroke-width="0.75" stroke-linecap="round" stroke-linejoin="round"/>
<path d="M7.57129 23.903V35.5236" stroke="black" stroke-opacity="0.2" stroke-width="0.75" stroke-linecap="round" stroke-linejoin="round"/>
<path d="M7.57129 14.911V20.3493" stroke="#000041" stroke-width="0.75" stroke-linecap="round" stroke-linejoin="round"/>
<path d="M7.57129 14.911V20.3493" stroke="black" stroke-opacity="0.2" stroke-width="0.75" stroke-linecap="round" stroke-linejoin="round"/>
<path d="M11.3276 38.4979V28.8681C11.4722 26.8459 13.1277 25.2733 15.1129 25.2733C17.098 25.2733 18.7651 26.8459 18.9077 28.8681V38.4979" stroke="#000041" stroke-width="0.75" stroke-linecap="round" stroke-linejoin="round"/>
<path d="M11.3276 38.4979V28.8681C11.4722 26.8459 13.1277 25.2733 15.1129 25.2733C17.098 25.2733 18.7651 26.8459 18.9077 28.8681V38.4979" stroke="black" stroke-opacity="0.2" stroke-width="0.75" stroke-linecap="round" stroke-linejoin="round"/>
<path d="M23.6392 27.8944C23.6604 26.4376 24.8225 25.2754 26.2526 25.2754C27.6826 25.2754 28.8448 26.4376 28.866 27.8944" stroke="#108CFF" stroke-width="0.75" stroke-linecap="round" stroke-linejoin="round"/>
<path d="M23.6392 27.8944V30.7981" stroke="#108CFF" stroke-width="0.75" stroke-linecap="round" stroke-linejoin="round"/>
<path d="M28.8662 27.8944V30.7981" stroke="#108CFF" stroke-width="0.75" stroke-linecap="round" stroke-linejoin="round"/>
<path d="M18.8558 3.74206C18.8558 3.0824 18.5262 2.49538 18.0232 2.09684C17.5298 1.69829 16.9015 1.5 16.2751 1.5C15.6488 1.5 15.0205 1.69829 14.5271 2.09684C14.0337 2.49538 13.7041 3.0824 13.7041 3.74206C13.7041 4.40172 14.0337 4.98874 14.5271 5.38729C15.0205 5.78583 15.6584 5.98412 16.2751 5.98412C16.8919 5.98412 17.5298 5.78583 18.0232 5.38729C18.5281 4.98874 18.8558 4.40172 18.8558 3.74206Z" stroke="#000041" stroke-width="0.75" stroke-linecap="round" stroke-linejoin="round"/>
<path d="M18.8558 3.74206C18.8558 3.0824 18.5262 2.49538 18.0232 2.09684C17.5298 1.69829 16.9015 1.5 16.2751 1.5C15.6488 1.5 15.0205 1.69829 14.5271 2.09684C14.0337 2.49538 13.7041 3.0824 13.7041 3.74206C13.7041 4.40172 14.0337 4.98874 14.5271 5.38729C15.0205 5.78583 15.6584 5.98412 16.2751 5.98412C16.8919 5.98412 17.5298 5.78583 18.0232 5.38729C18.5281 4.98874 18.8558 4.40172 18.8558 3.74206Z" stroke="black" stroke-opacity="0.2" stroke-width="0.75" stroke-linecap="round" stroke-linejoin="round"/>
<path d="M34.1006 25.5678C34.4494 25.9133 35.0373 25.8191 35.2531 25.3695" stroke="#000041" stroke-width="0.75" stroke-linecap="round" stroke-linejoin="round"/>
<path d="M34.1006 25.5678C34.4494 25.9133 35.0373 25.8191 35.2531 25.3695" stroke="black" stroke-opacity="0.2" stroke-width="0.75" stroke-linecap="round" stroke-linejoin="round"/>
<path d="M26.3337 27.484L25.3643 28.4323" stroke="#108CFF" stroke-width="0.25" stroke-miterlimit="10"/>
<path d="M27.4206 27.6862L25.5742 29.4943" stroke="#108CFF" stroke-width="0.25" stroke-miterlimit="10"/>
</g>
<defs>
<filter id="filter0_d_300_1387" x="0" y="0" width="42" height="42" filterUnits="userSpaceOnUse" color-interpolation-filters="sRGB">
<feFlood flood-opacity="0" result="BackgroundImageFix"/>
<feColorMatrix in="SourceAlpha" type="matrix" values="0 0 0 0 0 0 0 0 0 0 0 0 0 0 0 0 0 0 127 0" result="hardAlpha"/>
<feOffset dx="2" dy="2"/>
<feComposite in2="hardAlpha" operator="out"/>
<feColorMatrix type="matrix" values="0 0 0 0 0.0627451 0 0 0 0 0.54902 0 0 0 0 1 0 0 0 1 0"/>
<feBlend mode="normal" in2="BackgroundImageFix" result="effect1_dropShadow_300_1387"/>
<feBlend mode="normal" in="SourceGraphic" in2="effect1_dropShadow_300_1387" result="shape"/>
</filter>
</defs>
</svg>
