<svg width="30" height="30" viewBox="0 0 30 30" fill="none" xmlns="http://www.w3.org/2000/svg">
<g filter="url(#filter0_d_319_916)">
<circle cx="14" cy="14" r="13" fill="#FC7A03"/>
<path d="M14 3.13127e-06C21.7228 2.45612e-06 28 6.27721 28 14C28 21.7228 21.7228 28 14 28C6.27721 28 1.35858e-06 21.7228 6.8343e-07 14C8.28204e-09 6.27721 6.27721 3.80642e-06 14 3.13127e-06ZM14 26.0465C20.6419 26.0465 26.0465 20.6419 26.0465 14C26.0465 7.35814 20.6419 1.95349 14 1.95349C7.35814 1.95349 1.95349 7.35814 1.95349 14C1.95349 20.6419 7.35814 26.0465 14 26.0465Z" fill="#000041"/>
<path d="M14 3.13127e-06C21.7228 2.45612e-06 28 6.27721 28 14C28 21.7228 21.7228 28 14 28C6.27721 28 1.35858e-06 21.7228 6.8343e-07 14C8.28204e-09 6.27721 6.27721 3.80642e-06 14 3.13127e-06ZM14 26.0465C20.6419 26.0465 26.0465 20.6419 26.0465 14C26.0465 7.35814 20.6419 1.95349 14 1.95349C7.35814 1.95349 1.95349 7.35814 1.95349 14C1.95349 20.6419 7.35814 26.0465 14 26.0465Z" fill="black" fill-opacity="0.2"/>
<path d="M13.9998 11.7214C14.5338 11.7214 14.9766 12.1642 14.9766 12.6982L14.9766 19.2098C14.9766 19.7437 14.5338 20.1865 13.9998 20.1865C13.4659 20.1865 13.0231 19.7437 13.0231 19.2098L13.0231 12.6982C13.0231 12.1642 13.4659 11.7214 13.9998 11.7214Z" fill="#000041"/>
<path d="M13.9998 11.7214C14.5338 11.7214 14.9766 12.1642 14.9766 12.6982L14.9766 19.2098C14.9766 19.7437 14.5338 20.1865 13.9998 20.1865C13.4659 20.1865 13.0231 19.7437 13.0231 19.2098L13.0231 12.6982C13.0231 12.1642 13.4659 11.7214 13.9998 11.7214Z" fill="black" fill-opacity="0.2"/>
<path d="M14.0004 7.48878C14.1697 7.48878 14.339 7.52784 14.4953 7.59296C14.6516 7.65808 14.7948 7.74924 14.9251 7.86645C15.0423 7.99668 15.1334 8.12692 15.1985 8.29622C15.2637 8.4525 15.3027 8.6218 15.3027 8.7911C15.3027 8.9604 15.2637 9.12971 15.1985 9.28598C15.1334 9.44226 15.0423 9.58552 14.9251 9.71575C14.7948 9.83296 14.6516 9.92412 14.4953 9.98924C14.1827 10.1195 13.8181 10.1195 13.5055 9.98924C13.3492 9.92412 13.206 9.83296 13.0758 9.71575C12.9585 9.58552 12.8674 9.44226 12.8023 9.28598C12.7372 9.12971 12.6981 8.9604 12.6981 8.7911C12.6981 8.6218 12.7372 8.4525 12.8023 8.29622C12.8674 8.12692 12.9585 7.99668 13.0758 7.86645C13.206 7.74924 13.3492 7.65808 13.5055 7.59296C13.6618 7.52785 13.8311 7.48878 14.0004 7.48878Z" fill="#000041"/>
<path d="M14.0004 7.48878C14.1697 7.48878 14.339 7.52784 14.4953 7.59296C14.6516 7.65808 14.7948 7.74924 14.9251 7.86645C15.0423 7.99668 15.1334 8.12692 15.1985 8.29622C15.2637 8.4525 15.3027 8.6218 15.3027 8.7911C15.3027 8.9604 15.2637 9.12971 15.1985 9.28598C15.1334 9.44226 15.0423 9.58552 14.9251 9.71575C14.7948 9.83296 14.6516 9.92412 14.4953 9.98924C14.1827 10.1195 13.8181 10.1195 13.5055 9.98924C13.3492 9.92412 13.206 9.83296 13.0758 9.71575C12.9585 9.58552 12.8674 9.44226 12.8023 9.28598C12.7372 9.12971 12.6981 8.9604 12.6981 8.7911C12.6981 8.6218 12.7372 8.4525 12.8023 8.29622C12.8674 8.12692 12.9585 7.99668 13.0758 7.86645C13.206 7.74924 13.3492 7.65808 13.5055 7.59296C13.6618 7.52785 13.8311 7.48878 14.0004 7.48878Z" fill="black" fill-opacity="0.2"/>
</g>
<defs>
<filter id="filter0_d_319_916" x="0" y="0" width="30" height="30" filterUnits="userSpaceOnUse" color-interpolation-filters="sRGB">
<feFlood flood-opacity="0" result="BackgroundImageFix"/>
<feColorMatrix in="SourceAlpha" type="matrix" values="0 0 0 0 0 0 0 0 0 0 0 0 0 0 0 0 0 0 127 0" result="hardAlpha"/>
<feOffset dx="2" dy="2"/>
<feComposite in2="hardAlpha" operator="out"/>
<feColorMatrix type="matrix" values="0 0 0 0 0.0627451 0 0 0 0 0.54902 0 0 0 0 1 0 0 0 1 0"/>
<feBlend mode="normal" in2="BackgroundImageFix" result="effect1_dropShadow_319_916"/>
<feBlend mode="normal" in="SourceGraphic" in2="effect1_dropShadow_319_916" result="shape"/>
</filter>
</defs>
</svg>
