<svg width="25" height="25" viewBox="0 0 25 25" fill="none" xmlns="http://www.w3.org/2000/svg">
<rect x="0.149902" width="24.1" height="24.1" rx="12.05" fill="#FFFDFA"/>
<path d="M10.1937 12.0809C10.1937 10.9708 11.0931 10.0706 12.2029 10.0706C13.3127 10.0706 14.2126 10.9708 14.2126 12.0809C14.2126 13.191 13.3127 14.0912 12.2029 14.0912C11.0931 14.0912 10.1937 13.191 10.1937 12.0809ZM9.10731 12.0809C9.10731 13.7911 10.4932 15.1774 12.2029 15.1774C13.9126 15.1774 15.2986 13.7911 15.2986 12.0809C15.2986 10.3707 13.9126 8.98438 12.2029 8.98438C10.4932 8.98438 9.10731 10.3707 9.10731 12.0809ZM14.6977 8.8616C14.6976 9.00472 14.74 9.14465 14.8194 9.26368C14.8989 9.38272 15.0118 9.47551 15.144 9.53034C15.2762 9.58516 15.4216 9.59955 15.562 9.57168C15.7023 9.54382 15.8312 9.47495 15.9324 9.37379C16.0337 9.27262 16.1026 9.14371 16.1306 9.00335C16.1585 8.86299 16.1443 8.71748 16.0896 8.58523C16.0349 8.45298 15.9422 8.33993 15.8233 8.26036C15.7043 8.1808 15.5645 8.1383 15.4214 8.13825H15.4211C15.2293 8.13834 15.0454 8.21457 14.9098 8.35019C14.7741 8.48582 14.6978 8.66976 14.6977 8.8616ZM9.76737 16.9895C9.17961 16.9627 8.86014 16.8648 8.64783 16.782C8.36637 16.6724 8.16554 16.5419 7.9544 16.3309C7.74325 16.12 7.61255 15.9193 7.50346 15.6378C7.4207 15.4255 7.32279 15.1059 7.29607 14.5179C7.26685 13.8823 7.26101 13.6913 7.26101 12.0809C7.26101 10.4705 7.26733 10.2801 7.29607 9.64395C7.32284 9.05602 7.42147 8.73699 7.50346 8.52409C7.61303 8.24255 7.74354 8.04166 7.9544 7.83046C8.16525 7.61925 8.36589 7.48851 8.64783 7.37939C8.86004 7.2966 9.17961 7.19867 9.76737 7.17194C10.4028 7.14271 10.5937 7.13687 12.2029 7.13687C13.8121 7.13687 14.0032 7.14319 14.6392 7.17194C15.227 7.19872 15.5459 7.29737 15.7588 7.37939C16.0402 7.48851 16.241 7.61954 16.4522 7.83046C16.6633 8.04137 16.7936 8.24255 16.9031 8.52409C16.9859 8.73636 17.0838 9.05602 17.1105 9.64395C17.1397 10.2801 17.1456 10.4705 17.1456 12.0809C17.1456 13.6913 17.1397 13.8818 17.1105 14.5179C17.0837 15.1059 16.9854 15.4254 16.9031 15.6378C16.7936 15.9193 16.663 16.1202 16.4522 16.3309C16.2413 16.5417 16.0402 16.6724 15.7588 16.782C15.5465 16.8648 15.227 16.9627 14.6392 16.9895C14.0038 17.0187 13.8129 17.0245 12.2029 17.0245C10.593 17.0245 10.4026 17.0187 9.76737 16.9895ZM9.71745 6.08706C9.07567 6.11629 8.63713 6.21808 8.25414 6.36715C7.85751 6.5211 7.52174 6.72763 7.18621 7.06272C6.85068 7.39782 6.64474 7.73421 6.49084 8.13096C6.34182 8.5143 6.24005 8.95273 6.21083 9.5947C6.18112 10.2377 6.17432 10.4432 6.17432 12.0809C6.17432 13.7185 6.18112 13.9241 6.21083 14.5671C6.24005 15.2091 6.34182 15.6475 6.49084 16.0308C6.64474 16.4273 6.85073 16.7641 7.18621 17.0991C7.52169 17.434 7.85751 17.6403 8.25414 17.7946C8.63785 17.9437 9.07567 18.0455 9.71745 18.0747C10.3606 18.104 10.5658 18.1112 12.2029 18.1112C13.8401 18.1112 14.0456 18.1044 14.6884 18.0747C15.3302 18.0455 15.7685 17.9437 16.1517 17.7946C16.5481 17.6403 16.8841 17.4342 17.2197 17.0991C17.5552 16.764 17.7607 16.4273 17.915 16.0308C18.064 15.6475 18.1663 15.2091 18.195 14.5671C18.2243 13.9236 18.2311 13.7185 18.2311 12.0809C18.2311 10.4432 18.2243 10.2377 18.195 9.5947C18.1658 8.95268 18.064 8.51406 17.915 8.13096C17.7607 7.73445 17.5547 7.39835 17.2197 7.06272C16.8847 6.72709 16.5481 6.5211 16.1522 6.36715C15.7685 6.21808 15.3302 6.11581 14.6889 6.08706C14.0461 6.05782 13.8406 6.05054 12.2034 6.05054C10.5662 6.05054 10.3606 6.05734 9.71745 6.08706Z" fill="#000041"/>
</svg>
