<svg width="25" height="25" viewBox="0 0 25 25" fill="none" xmlns="http://www.w3.org/2000/svg">
<rect x="0.600098" width="24.1" height="24.1" rx="12.05" fill="#FFFDFA"/>
<path d="M9.87775 16.9335V10.4234H7.71581V16.9335H9.87797H9.87775ZM8.79723 9.5347C9.55099 9.5347 10.0202 9.0348 10.0202 8.41007C10.0061 7.7711 9.55099 7.28516 8.81157 7.28516C8.07164 7.28516 7.58838 7.7711 7.58838 8.41001C7.58838 9.03475 8.05747 9.53465 8.78307 9.53465H8.79706L8.79723 9.5347ZM11.0744 16.9335H13.2362V13.2984C13.2362 13.104 13.2503 12.9092 13.3074 12.7704C13.4636 12.3815 13.8193 11.979 14.4167 11.979C15.1988 11.979 15.5118 12.5759 15.5118 13.4511V16.9335H17.6735V13.2008C17.6735 11.2013 16.6071 10.2708 15.1848 10.2708C14.0187 10.2708 13.5065 10.9231 13.222 11.3674H13.2363V10.4236H11.0745C11.1027 11.0343 11.0744 16.9337 11.0744 16.9337L11.0744 16.9335Z" fill="#000041"/>
</svg>
