<svg width="40" height="40" viewBox="0 0 40 40" fill="none" xmlns="http://www.w3.org/2000/svg">
<path d="M29.7125 19.0625H24.6625C22.15 19.0625 20.9375 17.95 20.9375 15.65V9.975C20.9375 7.675 22.1625 6.5625 24.6625 6.5625H29.7125C32.225 6.5625 33.4375 7.675 33.4375 9.975V15.6375C33.4375 17.95 32.2125 19.0625 29.7125 19.0625ZM24.6625 8.4375C22.9875 8.4375 22.8125 8.9125 22.8125 9.975V15.6375C22.8125 16.7125 22.9875 17.175 24.6625 17.175H29.7125C31.3875 17.175 31.5625 16.7 31.5625 15.6375V9.975C31.5625 8.9 31.3875 8.4375 29.7125 8.4375H24.6625Z" fill="#FFFDFA"/>
<path d="M29.7125 33.4375H24.6625C22.15 33.4375 20.9375 32.2125 20.9375 29.7125V24.6625C20.9375 22.15 22.1625 20.9375 24.6625 20.9375H29.7125C32.225 20.9375 33.4375 22.1625 33.4375 24.6625V29.7125C33.4375 32.2125 32.2125 33.4375 29.7125 33.4375ZM24.6625 22.8125C23.1875 22.8125 22.8125 23.1875 22.8125 24.6625V29.7125C22.8125 31.1875 23.1875 31.5625 24.6625 31.5625H29.7125C31.1875 31.5625 31.5625 31.1875 31.5625 29.7125V24.6625C31.5625 23.1875 31.1875 22.8125 29.7125 22.8125H24.6625Z" fill="#FFFDFA"/>
<path d="M15.3375 19.0625H10.2875C7.775 19.0625 6.5625 17.95 6.5625 15.65V9.975C6.5625 7.675 7.7875 6.5625 10.2875 6.5625H15.3375C17.85 6.5625 19.0625 7.675 19.0625 9.975V15.6375C19.0625 17.95 17.8375 19.0625 15.3375 19.0625ZM10.2875 8.4375C8.6125 8.4375 8.4375 8.9125 8.4375 9.975V15.6375C8.4375 16.7125 8.6125 17.175 10.2875 17.175H15.3375C17.0125 17.175 17.1875 16.7 17.1875 15.6375V9.975C17.1875 8.9 17.0125 8.4375 15.3375 8.4375H10.2875Z" fill="#FFFDFA"/>
<path d="M15.3375 33.4375H10.2875C7.775 33.4375 6.5625 32.2125 6.5625 29.7125V24.6625C6.5625 22.15 7.7875 20.9375 10.2875 20.9375H15.3375C17.85 20.9375 19.0625 22.1625 19.0625 24.6625V29.7125C19.0625 32.2125 17.8375 33.4375 15.3375 33.4375ZM10.2875 22.8125C8.8125 22.8125 8.4375 23.1875 8.4375 24.6625V29.7125C8.4375 31.1875 8.8125 31.5625 10.2875 31.5625H15.3375C16.8125 31.5625 17.1875 31.1875 17.1875 29.7125V24.6625C17.1875 23.1875 16.8125 22.8125 15.3375 22.8125H10.2875Z" fill="#FFFDFA"/>
<rect x="7" y="7" width="11" height="11" rx="3" fill="#000041"/>
<rect x="21" y="7" width="11" height="11" rx="3" fill="#000041"/>
<rect x="7" y="21" width="11" height="11" rx="3" fill="#000041"/>
<rect x="22" y="22" width="11" height="11" rx="3" fill="#000041"/>
<path d="M29.7125 19.0625H24.6625C22.15 19.0625 20.9375 17.95 20.9375 15.65V9.975C20.9375 7.675 22.1625 6.5625 24.6625 6.5625H29.7125C32.225 6.5625 33.4375 7.675 33.4375 9.975V15.6375C33.4375 17.95 32.2125 19.0625 29.7125 19.0625ZM24.6625 8.4375C22.9875 8.4375 22.8125 8.9125 22.8125 9.975V15.6375C22.8125 16.7125 22.9875 17.175 24.6625 17.175H29.7125C31.3875 17.175 31.5625 16.7 31.5625 15.6375V9.975C31.5625 8.9 31.3875 8.4375 29.7125 8.4375H24.6625Z" fill="#FFFDFA"/>
<path d="M29.7125 33.4375H24.6625C22.15 33.4375 20.9375 32.2125 20.9375 29.7125V24.6625C20.9375 22.15 22.1625 20.9375 24.6625 20.9375H29.7125C32.225 20.9375 33.4375 22.1625 33.4375 24.6625V29.7125C33.4375 32.2125 32.2125 33.4375 29.7125 33.4375ZM24.6625 22.8125C23.1875 22.8125 22.8125 23.1875 22.8125 24.6625V29.7125C22.8125 31.1875 23.1875 31.5625 24.6625 31.5625H29.7125C31.1875 31.5625 31.5625 31.1875 31.5625 29.7125V24.6625C31.5625 23.1875 31.1875 22.8125 29.7125 22.8125H24.6625Z" fill="#FFFDFA"/>
<path d="M15.3375 19.0625H10.2875C7.775 19.0625 6.5625 17.95 6.5625 15.65V9.975C6.5625 7.675 7.7875 6.5625 10.2875 6.5625H15.3375C17.85 6.5625 19.0625 7.675 19.0625 9.975V15.6375C19.0625 17.95 17.8375 19.0625 15.3375 19.0625ZM10.2875 8.4375C8.6125 8.4375 8.4375 8.9125 8.4375 9.975V15.6375C8.4375 16.7125 8.6125 17.175 10.2875 17.175H15.3375C17.0125 17.175 17.1875 16.7 17.1875 15.6375V9.975C17.1875 8.9 17.0125 8.4375 15.3375 8.4375H10.2875Z" fill="#FFFDFA"/>
<path d="M15.3375 33.4375H10.2875C7.775 33.4375 6.5625 32.2125 6.5625 29.7125V24.6625C6.5625 22.15 7.7875 20.9375 10.2875 20.9375H15.3375C17.85 20.9375 19.0625 22.1625 19.0625 24.6625V29.7125C19.0625 32.2125 17.8375 33.4375 15.3375 33.4375ZM10.2875 22.8125C8.8125 22.8125 8.4375 23.1875 8.4375 24.6625V29.7125C8.4375 31.1875 8.8125 31.5625 10.2875 31.5625H15.3375C16.8125 31.5625 17.1875 31.1875 17.1875 29.7125V24.6625C17.1875 23.1875 16.8125 22.8125 15.3375 22.8125H10.2875Z" fill="#FFFDFA"/>
</svg>
