<svg width="40" height="40" viewBox="0 0 40 40" fill="none" xmlns="http://www.w3.org/2000/svg">
<g filter="url(#filter0_d_319_955)">
<path d="M7.5 21L16.5 11.5L18 14.5L20.5 16.5L23.5 18L14.5 27.5L8 28.5L7 27L7.5 21Z" fill="#FC7A03"/>
<path d="M20 8L16.5 11.5L17 12.5L18.5 15L20.5 17L23.5 18L26 15L27 12.5L25.5 9.5L22.5 7.5L20 8Z" fill="#FFFDFA"/>
<path d="M8.92449 29.4004C8.16199 29.4004 7.44949 29.1379 6.93699 28.6504C6.28699 28.0379 5.97449 27.1129 6.08699 26.1129L6.54949 22.0629C6.63699 21.3004 7.0995 20.2879 7.637 19.7379L17.8995 8.87543C20.462 6.16293 23.137 6.08793 25.8495 8.65043C28.562 11.2129 28.637 13.8879 26.0745 16.6004L15.812 27.4629C15.287 28.0254 14.312 28.5504 13.5495 28.6754L9.52449 29.3629C9.31199 29.3754 9.12449 29.4004 8.92449 29.4004ZM21.912 8.63793C20.9495 8.63793 20.112 9.23793 19.262 10.1379L8.99949 21.0129C8.74949 21.2754 8.462 21.9004 8.41199 22.2629L7.9495 26.3129C7.8995 26.7254 7.99949 27.0629 8.22449 27.2754C8.44949 27.4879 8.78699 27.5629 9.1995 27.5004L13.2245 26.8129C13.587 26.7504 14.187 26.4254 14.437 26.1629L24.6995 15.3004C26.2495 13.6504 26.812 12.1254 24.5495 10.0004C23.5495 9.03793 22.687 8.63793 21.912 8.63793Z" fill="#000041"/>
<path d="M8.92449 29.4004C8.16199 29.4004 7.44949 29.1379 6.93699 28.6504C6.28699 28.0379 5.97449 27.1129 6.08699 26.1129L6.54949 22.0629C6.63699 21.3004 7.0995 20.2879 7.637 19.7379L17.8995 8.87543C20.462 6.16293 23.137 6.08793 25.8495 8.65043C28.562 11.2129 28.637 13.8879 26.0745 16.6004L15.812 27.4629C15.287 28.0254 14.312 28.5504 13.5495 28.6754L9.52449 29.3629C9.31199 29.3754 9.12449 29.4004 8.92449 29.4004ZM21.912 8.63793C20.9495 8.63793 20.112 9.23793 19.262 10.1379L8.99949 21.0129C8.74949 21.2754 8.462 21.9004 8.41199 22.2629L7.9495 26.3129C7.8995 26.7254 7.99949 27.0629 8.22449 27.2754C8.44949 27.4879 8.78699 27.5629 9.1995 27.5004L13.2245 26.8129C13.587 26.7504 14.187 26.4254 14.437 26.1629L24.6995 15.3004C26.2495 13.6504 26.812 12.1254 24.5495 10.0004C23.5495 9.03793 22.687 8.63793 21.912 8.63793Z" fill="black" fill-opacity="0.2"/>
<path d="M23.6746 18.6871C23.6496 18.6871 23.6121 18.6871 23.5871 18.6871C19.6871 18.2996 16.5496 15.3371 15.9496 11.4621C15.8746 10.9496 16.2246 10.4746 16.7371 10.3871C17.2496 10.3121 17.7246 10.6621 17.8121 11.1746C18.2871 14.1996 20.7371 16.5246 23.7871 16.8246C24.2996 16.8746 24.6746 17.3371 24.6246 17.8496C24.5621 18.3246 24.1496 18.6871 23.6746 18.6871Z" fill="#000041"/>
<path d="M23.6746 18.6871C23.6496 18.6871 23.6121 18.6871 23.5871 18.6871C19.6871 18.2996 16.5496 15.3371 15.9496 11.4621C15.8746 10.9496 16.2246 10.4746 16.7371 10.3871C17.2496 10.3121 17.7246 10.6621 17.8121 11.1746C18.2871 14.1996 20.7371 16.5246 23.7871 16.8246C24.2996 16.8746 24.6746 17.3371 24.6246 17.8496C24.5621 18.3246 24.1496 18.6871 23.6746 18.6871Z" fill="black" fill-opacity="0.2"/>
<path d="M28.25 33.4375H5.75C5.2375 33.4375 4.8125 33.0125 4.8125 32.5C4.8125 31.9875 5.2375 31.5625 5.75 31.5625H28.25C28.7625 31.5625 29.1875 31.9875 29.1875 32.5C29.1875 33.0125 28.7625 33.4375 28.25 33.4375Z" fill="#000041"/>
<path d="M28.25 33.4375H5.75C5.2375 33.4375 4.8125 33.0125 4.8125 32.5C4.8125 31.9875 5.2375 31.5625 5.75 31.5625H28.25C28.7625 31.5625 29.1875 31.9875 29.1875 32.5C29.1875 33.0125 28.7625 33.4375 28.25 33.4375Z" fill="black" fill-opacity="0.2"/>
</g>
<defs>
<filter id="filter0_d_319_955" x="4.8125" y="5" width="32.1875" height="32" filterUnits="userSpaceOnUse" color-interpolation-filters="sRGB">
<feFlood flood-opacity="0" result="BackgroundImageFix"/>
<feColorMatrix in="SourceAlpha" type="matrix" values="0 0 0 0 0 0 0 0 0 0 0 0 0 0 0 0 0 0 127 0" result="hardAlpha"/>
<feOffset dx="2" dy="2"/>
<feComposite in2="hardAlpha" operator="out"/>
<feColorMatrix type="matrix" values="0 0 0 0 0.0627451 0 0 0 0 0.54902 0 0 0 0 1 0 0 0 1 0"/>
<feBlend mode="normal" in2="BackgroundImageFix" result="effect1_dropShadow_319_955"/>
<feBlend mode="normal" in="SourceGraphic" in2="effect1_dropShadow_319_955" result="shape"/>
</filter>
</defs>
</svg>
