<svg width="40" height="40" viewBox="0 0 40 40" fill="none" xmlns="http://www.w3.org/2000/svg">
<path d="M37 9.02558V29.3949C37 30.7968 35.8703 31.9297 34.4832 31.9297H31.8751C31.9864 31.8052 31.9974 31.7119 31.9919 31.6003C31.9828 31.2525 31.8222 30.7163 31.5904 29.9403C31.3987 29.3053 31.1523 28.4982 30.9479 27.8796H31.7072C32.4007 27.8796 32.9702 27.3177 32.9702 26.6205V11.8092C32.9702 11.1138 32.4007 10.5519 31.7072 10.5519H8.29465C7.60111 10.5519 7.03167 11.1138 7.03167 11.8092V26.6205C7.03167 27.3177 7.60111 27.8796 8.29465 27.8796H25.6971C25.9417 28.3939 26.2665 29.0619 26.7064 29.9403C26.3505 29.7445 26.011 29.5304 25.7628 29.4041C25.5219 29.2705 25.3704 29.2357 25.2554 29.2174C25.1313 29.1991 25.0419 29.1991 24.9707 29.2449C24.8995 29.2888 24.863 29.3785 24.8466 29.4846C24.8283 29.6018 24.8375 29.7445 24.8995 29.8964C24.9707 30.0465 25.0948 30.2075 25.3704 30.4583C25.6369 30.7072 26.0566 31.0457 26.7502 31.6167C26.8688 31.7156 26.9929 31.8199 27.1243 31.9297H5.51865C4.13157 31.9297 3 30.7968 3 29.3949V9.02558C3 7.63285 4.13157 6.5 5.51865 6.5H34.4832C35.8703 6.5 37 7.63285 37 9.02558Z" fill="#FC7A03"/>
<path d="M27.0496 27.8172C26.4345 26.7374 26.1881 26.2927 25.9946 25.9871C25.7355 25.5863 25.5657 25.4161 25.4234 25.3173C25.2902 25.2203 25.1843 25.202 25.0949 25.2203C25.0054 25.2386 24.9251 25.3008 24.8813 25.4161C24.8467 25.5241 24.8466 25.6833 24.9343 26.031C24.9981 26.2836 25.1058 26.6313 25.6972 27.8794H8.29472C7.60117 27.8794 7.03174 27.3176 7.03174 26.6203V11.8091C7.03174 11.1136 7.60117 10.5518 8.29472 10.5518H31.7072C32.4008 10.5518 32.9702 11.1136 32.9702 11.8091V26.6203C32.9702 27.3176 32.4008 27.8794 31.7072 27.8794H30.948C30.9042 27.7513 30.864 27.6305 30.8257 27.5226C30.6122 26.8967 30.4698 26.6569 30.3366 26.505C30.2034 26.3623 30.0774 26.3092 29.9533 26.3092C29.8383 26.3 29.7306 26.3531 29.6412 26.4336C29.5627 26.5233 29.4916 26.6386 29.5792 27.2664C29.1886 26.6258 29.0207 26.5014 28.8765 26.4245C28.7159 26.3348 28.5918 26.3165 28.4859 26.344C28.3691 26.3623 28.2797 26.4153 28.2085 26.5142C28.1465 26.6112 28.1118 26.7539 28.2268 27.2883C27.8873 26.7301 27.7486 26.5764 27.6318 26.4776C27.4803 26.3531 27.3471 26.3348 27.2394 26.344C27.1335 26.3531 27.035 26.3806 26.9729 26.4428C26.9017 26.505 26.8652 26.602 26.8397 26.7539C26.8214 26.8967 26.8214 27.1035 27.1773 28.0387C27.1317 27.9618 27.0897 27.8886 27.0496 27.8172ZM23.4577 19.4737C23.8757 18.7324 24.0272 18.1523 23.9998 17.6362C23.9651 17.1183 23.7516 16.6717 23.5289 16.3514C23.3063 16.0293 23.0653 15.8335 22.5945 15.753C22.1145 15.6725 21.3935 15.7182 19.8531 17.2702C18.3237 15.7182 17.6028 15.6725 17.1228 15.753C16.6409 15.8335 16.4019 16.0293 16.1792 16.3514C15.9565 16.6717 15.743 17.1183 15.7156 17.6362C15.6809 18.1523 15.8324 18.7324 16.2504 19.4737C16.6775 20.2149 17.3619 21.1153 19.8531 23.1852C22.3462 21.1153 23.0398 20.2149 23.4577 19.4737Z" fill="#FFFDFA"/>
<path d="M29.5792 27.2665C29.4916 26.6388 29.5628 26.5235 29.6413 26.4338C29.7307 26.3533 29.8384 26.3002 29.9534 26.3094C30.0775 26.3094 30.2034 26.3624 30.3367 26.5052C30.4699 26.6571 30.6123 26.8968 30.8258 27.5227C30.8641 27.6307 30.9043 27.7515 30.9481 27.8796C31.1525 28.4982 31.3989 29.3053 31.5905 29.9403C31.8223 30.7163 31.9829 31.2525 31.992 31.6003C31.9975 31.7119 31.9866 31.8052 31.8752 31.9297C31.638 32.1822 30.9499 32.5629 29.0007 33.4999C28.5152 33.0845 27.7633 32.4604 27.1245 31.9297C26.9931 31.8199 26.869 31.7156 26.7503 31.6167C26.0568 31.0457 25.637 30.7072 25.3705 30.4583C25.0949 30.2075 24.9708 30.0465 24.8997 29.8964C24.8376 29.7445 24.8285 29.6018 24.8467 29.4846C24.8632 29.3785 24.8997 29.2888 24.9708 29.2449C25.042 29.1991 25.1314 29.1991 25.2556 29.2174C25.3705 29.2357 25.522 29.2705 25.7629 29.4041C26.0112 29.5304 26.3506 29.7445 26.7065 29.9403C26.2667 29.0619 25.9418 28.3939 25.6972 27.8796C25.1059 26.6315 24.9982 26.2837 24.9343 26.0312C24.8467 25.6835 24.8467 25.5242 24.8814 25.4163C24.9252 25.301 25.0055 25.2387 25.0949 25.2204C25.1844 25.2021 25.2902 25.2204 25.4235 25.3174C25.5658 25.4163 25.7356 25.5865 25.9947 25.9873C26.1882 26.2929 26.4346 26.7376 27.0496 27.8174C27.0898 27.8888 27.1318 27.962 27.1774 28.0388C26.8215 27.1036 26.8215 26.8968 26.8397 26.7541C26.8653 26.6022 26.9018 26.5052 26.973 26.443C27.035 26.3807 27.1336 26.3533 27.2394 26.3441C27.3471 26.335 27.4804 26.3533 27.6318 26.4777C27.7487 26.5766 27.8874 26.7303 28.2268 27.2885C28.1119 26.7541 28.1465 26.6113 28.2086 26.5143C28.2798 26.4155 28.3692 26.3624 28.486 26.3441C28.5919 26.3167 28.716 26.335 28.8766 26.4247C29.0208 26.5015 29.1887 26.626 29.5792 27.2665Z" fill="#FFFDFA"/>
<path d="M23.9999 17.6363C24.0273 18.1524 23.8758 18.7325 23.4578 19.4737C23.0399 20.2149 22.3463 21.1154 19.8532 23.1853C17.362 21.1154 16.6776 20.2149 16.2505 19.4737C15.8325 18.7325 15.681 18.1524 15.7157 17.6363C15.7431 17.1184 15.9566 16.6718 16.1793 16.3515C16.402 16.0294 16.6411 15.8336 17.1229 15.7531C17.6029 15.6726 18.3238 15.7183 19.8532 17.2703C21.3936 15.7183 22.1146 15.6726 22.5946 15.7531C23.0654 15.8336 23.3064 16.0294 23.529 16.3515C23.7517 16.6718 23.9652 17.1184 23.9999 17.6363Z" fill="#000041"/>
<path d="M23.9999 17.6363C24.0273 18.1524 23.8758 18.7325 23.4578 19.4737C23.0399 20.2149 22.3463 21.1154 19.8532 23.1853C17.362 21.1154 16.6776 20.2149 16.2505 19.4737C15.8325 18.7325 15.681 18.1524 15.7157 17.6363C15.7431 17.1184 15.9566 16.6718 16.1793 16.3515C16.402 16.0294 16.6411 15.8336 17.1229 15.7531C17.6029 15.6726 18.3238 15.7183 19.8532 17.2703C21.3936 15.7183 22.1146 15.6726 22.5946 15.7531C23.0654 15.8336 23.3064 16.0294 23.529 16.3515C23.7517 16.6718 23.9652 17.1184 23.9999 17.6363Z" fill="black" fill-opacity="0.2"/>
<path d="M27.0881 27.8154H27.0425" stroke="#000041" stroke-linecap="round" stroke-linejoin="round"/>
<path d="M27.0881 27.8154H27.0425" stroke="black" stroke-opacity="0.2" stroke-linecap="round" stroke-linejoin="round"/>
<path d="M27.0879 27.8779H27.1134" stroke="#000041" stroke-linecap="round" stroke-linejoin="round"/>
<path d="M27.0879 27.8779H27.1134" stroke="black" stroke-opacity="0.2" stroke-linecap="round" stroke-linejoin="round"/>
<path d="M30.9498 27.8776H31.7054C32.399 27.8776 32.9684 27.3158 32.9684 26.6203V11.8091C32.9684 11.1136 32.399 10.5518 31.7054 10.5518H8.29472C7.60117 10.5518 7.03174 11.1136 7.03174 11.8091V26.6203C7.03174 27.3158 7.60117 27.8776 8.29472 27.8776H25.699" stroke="#000041" stroke-linecap="round" stroke-linejoin="round"/>
<path d="M30.9498 27.8776H31.7054C32.399 27.8776 32.9684 27.3158 32.9684 26.6203V11.8091C32.9684 11.1136 32.399 10.5518 31.7054 10.5518H8.29472C7.60117 10.5518 7.03174 11.1136 7.03174 11.8091V26.6203C7.03174 27.3158 7.60117 27.8776 8.29472 27.8776H25.699" stroke="black" stroke-opacity="0.2" stroke-linecap="round" stroke-linejoin="round"/>
<path d="M19.853 17.2703C21.3916 15.7183 22.1125 15.6726 22.5943 15.7531C23.0652 15.8336 23.3061 16.0294 23.5288 16.3515C23.7515 16.6736 23.965 17.1184 23.9997 17.6363C24.0271 18.1542 23.8756 18.7344 23.4576 19.4737C23.0397 20.2149 22.3461 21.1154 19.853 23.1853" stroke="#000041" stroke-linecap="round" stroke-linejoin="round"/>
<path d="M19.853 17.2703C21.3916 15.7183 22.1125 15.6726 22.5943 15.7531C23.0652 15.8336 23.3061 16.0294 23.5288 16.3515C23.7515 16.6736 23.965 17.1184 23.9997 17.6363C24.0271 18.1542 23.8756 18.7344 23.4576 19.4737C23.0397 20.2149 22.3461 21.1154 19.853 23.1853" stroke="black" stroke-opacity="0.2" stroke-linecap="round" stroke-linejoin="round"/>
<path d="M19.8531 17.2703C18.3218 15.7183 17.6027 15.6726 17.1209 15.7531C16.6391 15.8336 16.4 16.0294 16.1773 16.3515C15.9547 16.6736 15.7411 17.1184 15.7137 17.6363C15.6772 18.1542 15.8287 18.7344 16.2485 19.4737C16.6756 20.2149 17.36 21.1154 19.8531 23.1853" stroke="#000041" stroke-linecap="round" stroke-linejoin="round"/>
<path d="M19.8531 17.2703C18.3218 15.7183 17.6027 15.6726 17.1209 15.7531C16.6391 15.8336 16.4 16.0294 16.1773 16.3515C15.9547 16.6736 15.7411 17.1184 15.7137 17.6363C15.6772 18.1542 15.8287 18.7344 16.2485 19.4737C16.6756 20.2149 17.36 21.1154 19.8531 23.1853" stroke="black" stroke-opacity="0.2" stroke-linecap="round" stroke-linejoin="round"/>
<path d="M29.0007 33.4998C28.413 33.0002 27.4439 32.1968 26.7503 31.6166C26.0568 31.0456 25.6388 30.707 25.3705 30.4563C25.0949 30.2056 24.9708 30.0464 24.8997 29.8944C24.8376 29.7425 24.8285 29.5998 24.8467 29.4845C24.865 29.3765 24.8997 29.2887 24.9708 29.2429C25.042 29.1972 25.1314 29.199 25.2556 29.2155C25.3705 29.2338 25.522 29.2685 25.7629 29.4021C26.013 29.5266 26.3506 29.7407 26.7065 29.9384" stroke="#000041" stroke-linecap="round" stroke-linejoin="round"/>
<path d="M29.0007 33.4998C28.413 33.0002 27.4439 32.1968 26.7503 31.6166C26.0568 31.0456 25.6388 30.707 25.3705 30.4563C25.0949 30.2056 24.9708 30.0464 24.8997 29.8944C24.8376 29.7425 24.8285 29.5998 24.8467 29.4845C24.865 29.3765 24.8997 29.2887 24.9708 29.2429C25.042 29.1972 25.1314 29.199 25.2556 29.2155C25.3705 29.2338 25.522 29.2685 25.7629 29.4021C26.013 29.5266 26.3506 29.7407 26.7065 29.9384" stroke="black" stroke-opacity="0.2" stroke-linecap="round" stroke-linejoin="round"/>
<path d="M29.579 27.272C29.4896 26.6388 29.5608 26.5217 29.6411 26.4338C29.7305 26.3533 29.8364 26.3002 29.9532 26.3094C30.0773 26.3094 30.2032 26.3624 30.3365 26.5052C30.4697 26.6571 30.6121 26.8987 30.8256 27.5228C31.0483 28.156 31.3604 29.1735 31.5903 29.9404C31.8221 30.7163 31.9827 31.2526 31.99 31.6003C32.0083 31.948 31.875 32.1182 29.0005 33.5" stroke="#000041" stroke-linecap="round" stroke-linejoin="round"/>
<path d="M29.579 27.272C29.4896 26.6388 29.5608 26.5217 29.6411 26.4338C29.7305 26.3533 29.8364 26.3002 29.9532 26.3094C30.0773 26.3094 30.2032 26.3624 30.3365 26.5052C30.4697 26.6571 30.6121 26.8987 30.8256 27.5228C31.0483 28.156 31.3604 29.1735 31.5903 29.9404C31.8221 30.7163 31.9827 31.2526 31.99 31.6003C32.0083 31.948 31.875 32.1182 29.0005 33.5" stroke="black" stroke-opacity="0.2" stroke-linecap="round" stroke-linejoin="round"/>
<path d="M28.2265 27.2904C28.1116 26.7542 28.1462 26.6115 28.2083 26.5145C28.2795 26.4156 28.3689 26.3626 28.4839 26.3443C28.5916 26.3168 28.7157 26.3351 28.8763 26.4248C29.046 26.5145 29.2504 26.6755 29.8107 27.6656" stroke="#000041" stroke-linecap="round" stroke-linejoin="round"/>
<path d="M28.2265 27.2904C28.1116 26.7542 28.1462 26.6115 28.2083 26.5145C28.2795 26.4156 28.3689 26.3626 28.4839 26.3443C28.5916 26.3168 28.7157 26.3351 28.8763 26.4248C29.046 26.5145 29.2504 26.6755 29.8107 27.6656" stroke="black" stroke-opacity="0.2" stroke-linecap="round" stroke-linejoin="round"/>
<path d="M27.1753 28.0389C26.8194 27.1019 26.8194 26.8969 26.8377 26.7541C26.865 26.6022 26.8997 26.5034 26.9709 26.4412C27.0329 26.3789 27.1315 26.3515 27.2374 26.3423C27.345 26.3332 27.4783 26.3515 27.6298 26.4759C27.7904 26.6095 27.9857 26.842 28.6628 28.037" stroke="#000041" stroke-linecap="round" stroke-linejoin="round"/>
<path d="M27.1753 28.0389C26.8194 27.1019 26.8194 26.8969 26.8377 26.7541C26.865 26.6022 26.8997 26.5034 26.9709 26.4412C27.0329 26.3789 27.1315 26.3515 27.2374 26.3423C27.345 26.3332 27.4783 26.3515 27.6298 26.4759C27.7904 26.6095 27.9857 26.842 28.6628 28.037" stroke="black" stroke-opacity="0.2" stroke-linecap="round" stroke-linejoin="round"/>
<path d="M26.7046 29.9404C25.2007 26.9335 25.0237 26.39 24.9342 26.0331C24.8448 25.6854 24.8448 25.5243 24.8813 25.4182C24.9251 25.3029 25.0054 25.2388 25.0948 25.2224C25.1843 25.2041 25.2901 25.2224 25.4234 25.3212C25.5657 25.42 25.7355 25.5884 25.9928 25.991C26.2428 26.3845 26.5805 27.0086 27.6737 28.9174" stroke="#000041" stroke-linecap="round" stroke-linejoin="round"/>
<path d="M26.7046 29.9404C25.2007 26.9335 25.0237 26.39 24.9342 26.0331C24.8448 25.6854 24.8448 25.5243 24.8813 25.4182C24.9251 25.3029 25.0054 25.2388 25.0948 25.2224C25.1843 25.2041 25.2901 25.2224 25.4234 25.3212C25.5657 25.42 25.7355 25.5884 25.9928 25.991C26.2428 26.3845 26.5805 27.0086 27.6737 28.9174" stroke="black" stroke-opacity="0.2" stroke-linecap="round" stroke-linejoin="round"/>
<path d="M31.8751 31.9297H34.4813C35.8703 31.9297 37 30.7968 37 29.3949V9.02558C37 7.63285 35.8703 6.5 34.4813 6.5H5.51865C4.12974 6.5 3 7.63285 3 9.02558V29.3949C3 30.795 4.12974 31.9297 5.51865 31.9297H27.1225" stroke="#000041" stroke-linecap="round" stroke-linejoin="round"/>
<path d="M31.8751 31.9297H34.4813C35.8703 31.9297 37 30.7968 37 29.3949V9.02558C37 7.63285 35.8703 6.5 34.4813 6.5H5.51865C4.12974 6.5 3 7.63285 3 9.02558V29.3949C3 30.795 4.12974 31.9297 5.51865 31.9297H27.1225" stroke="black" stroke-opacity="0.2" stroke-linecap="round" stroke-linejoin="round"/>
</svg>
