<svg width="25" height="25" viewBox="0 0 25 25" fill="none" xmlns="http://www.w3.org/2000/svg">
<rect x="0.450195" width="24.1" height="24.1" rx="12.05" fill="#FFFDFA"/>
<path fill-rule="evenodd" clip-rule="evenodd" d="M15.1034 10.4119C15.9105 10.9862 16.8771 11.2931 17.8675 11.2893V9.3249C17.6728 9.32544 17.4786 9.30458 17.2885 9.26269V10.8277C16.2959 10.8295 15.3279 10.5191 14.5211 9.94042V13.9806C14.5187 14.6436 14.337 15.2935 13.9954 15.8615C13.6538 16.4295 13.165 16.8944 12.5809 17.2069C11.9967 17.5194 11.3389 17.6678 10.6773 17.6365C10.0156 17.6051 9.37481 17.3951 8.82275 17.0288C9.33339 17.5459 9.98586 17.8997 10.6975 18.0454C11.4092 18.1911 12.1481 18.1222 12.8206 17.8474C13.4931 17.5725 14.069 17.1041 14.4754 16.5014C14.8818 15.8988 15.1003 15.189 15.1034 14.4619V10.4119ZM15.8197 8.40816C15.4093 7.96286 15.1574 7.39423 15.1034 6.79078V6.5354H14.5538C14.6217 6.91898 14.7696 7.28396 14.9877 7.60661C15.2058 7.92926 15.4893 8.20236 15.8197 8.40816ZM10.0952 15.4736C9.90476 15.2243 9.78803 14.9265 9.75833 14.614C9.72864 14.3016 9.78717 13.9871 9.92726 13.7063C10.0674 13.4256 10.2834 13.1898 10.5508 13.0259C10.8181 12.8619 11.1261 12.7764 11.4397 12.779C11.6128 12.779 11.7849 12.8055 11.95 12.8576V10.8277C11.757 10.8021 11.5623 10.7912 11.3677 10.7949V12.373C10.9657 12.2459 10.5306 12.2748 10.149 12.4541C9.76733 12.6333 9.46708 12.9498 9.30795 13.3406C9.14882 13.7313 9.14247 14.1677 9.29017 14.5629C9.43786 14.9582 9.72877 15.2833 10.105 15.4736H10.0952Z" fill="#000041"/>
<path fill-rule="evenodd" clip-rule="evenodd" d="M14.5205 9.92732C15.3273 10.506 16.2953 10.8164 17.2879 10.8146V9.24959C16.7224 9.12992 16.2086 8.83561 15.8191 8.40816C15.4887 8.20236 15.2052 7.92926 14.9871 7.60661C14.7689 7.28396 14.6211 6.91898 14.5532 6.5354H13.1073V14.4619C13.106 14.8127 12.9949 15.1544 12.7897 15.4388C12.5844 15.7232 12.2954 15.9362 11.963 16.0478C11.6307 16.1594 11.2718 16.164 10.9367 16.061C10.6016 15.9581 10.3071 15.7526 10.0946 15.4736C9.75786 15.3035 9.48817 15.0248 9.32906 14.6825C9.16995 14.3403 9.1307 13.9543 9.21764 13.5869C9.30458 13.2196 9.51264 12.8922 9.80825 12.6577C10.1039 12.4232 10.4698 12.2953 10.847 12.2945C11.02 12.295 11.1921 12.3215 11.3573 12.373V10.7949C10.6434 10.8121 9.95002 11.0375 9.36231 11.4435C8.7746 11.8495 8.31812 12.4184 8.0489 13.0804C7.77968 13.7424 7.70944 14.4687 7.8468 15.1701C7.98416 15.8715 8.32314 16.5175 8.82214 17.0288C9.37431 17.3977 10.0161 17.6099 10.6793 17.6426C11.3424 17.6754 12.002 17.5275 12.5877 17.2147C13.1735 16.9019 13.6635 16.4359 14.0056 15.8664C14.3477 15.2968 14.529 14.6451 14.5303 13.9806L14.5205 9.92732Z" fill="#000041"/>
<path fill-rule="evenodd" clip-rule="evenodd" d="M17.2884 9.24954V8.82718C16.7691 8.82939 16.2598 8.68407 15.8197 8.4081C16.2082 8.83678 16.7224 9.13133 17.2884 9.24954ZM14.5537 6.53534C14.5537 6.46004 14.5308 6.38146 14.521 6.30616V6.05078H12.5256V13.9805C12.5239 14.4246 12.3462 14.8498 12.0316 15.1628C11.717 15.4759 11.2912 15.6512 10.8475 15.6503C10.5863 15.6516 10.3285 15.591 10.0952 15.4735C10.3077 15.7526 10.6021 15.958 10.9372 16.061C11.2723 16.164 11.6312 16.1593 11.9636 16.0477C12.2959 15.9361 12.585 15.7232 12.7902 15.4387C12.9955 15.1543 13.1066 14.8127 13.1079 14.4618V6.53534H14.5537ZM11.3578 10.7916V10.3431C10.5367 10.2314 9.70207 10.4014 8.98987 10.8254C8.27766 11.2493 7.7299 11.9022 7.43588 12.6776C7.14185 13.453 7.11888 14.3052 7.37072 15.0953C7.62256 15.8855 8.13436 16.567 8.8227 17.0287C8.32748 16.5162 7.9921 15.8705 7.85755 15.1704C7.72299 14.4703 7.79508 13.7461 8.065 13.0863C8.33492 12.4265 8.791 11.8597 9.3775 11.4551C9.96401 11.0505 10.6555 10.8256 11.3676 10.808L11.3578 10.7916Z" fill="#000041"/>
</svg>
