<svg width="25" height="25" viewBox="0 0 25 25" fill="none" xmlns="http://www.w3.org/2000/svg">
<rect x="0.299805" width="24.1" height="24.1" rx="12.05" fill="#000041"/>
<rect x="0.299805" width="24.1" height="24.1" rx="12.05" fill="black" fill-opacity="0.2"/>
<path d="M18.3309 8.23462C17.9329 8.40603 17.5146 8.52539 17.0862 8.58975C17.2865 8.55538 17.5812 8.19453 17.6985 8.04847C17.8767 7.82816 18.0126 7.57665 18.0991 7.30672C18.0991 7.28668 18.1191 7.25804 18.0991 7.24372C18.089 7.2382 18.0777 7.23531 18.0662 7.23531C18.0547 7.23531 18.0434 7.2382 18.0333 7.24372C17.5681 7.49586 17.073 7.68831 16.5597 7.8165C16.5418 7.82197 16.5228 7.82246 16.5046 7.81792C16.4865 7.81338 16.4699 7.80397 16.4567 7.79072C16.4167 7.7431 16.3737 7.69814 16.3279 7.65612C16.1186 7.46838 15.881 7.31472 15.624 7.20076C15.2771 7.0583 14.9024 6.99661 14.5281 7.02034C14.165 7.04329 13.8105 7.14077 13.4866 7.30672C13.1677 7.48169 12.8874 7.71938 12.6625 8.00551C12.4261 8.30002 12.2553 8.6418 12.1618 9.00787C12.0847 9.35608 12.076 9.71597 12.1361 10.0675C12.1361 10.1277 12.1361 10.1362 12.0846 10.1277C10.0444 9.82695 8.37053 9.10238 7.00281 7.54729C6.94272 7.47856 6.91125 7.47856 6.86261 7.54729C6.26745 8.45228 6.55644 9.88422 7.30039 10.5916C7.40054 10.6861 7.50355 10.7778 7.61228 10.8637C7.27118 10.8394 6.93842 10.7469 6.6337 10.5916C6.57647 10.5544 6.545 10.5744 6.54214 10.6432C6.53402 10.7384 6.53402 10.8343 6.54214 10.9295C6.60184 11.3862 6.78165 11.8188 7.06319 12.1831C7.34472 12.5474 7.71787 12.8304 8.14449 13.003C8.24849 13.0476 8.35685 13.0812 8.46782 13.1032C8.15205 13.1655 7.82819 13.1751 7.50927 13.1319C7.4406 13.1176 7.41485 13.1548 7.4406 13.2207C7.86121 14.3662 8.77398 14.7156 9.44354 14.9103C9.5351 14.9247 9.62666 14.9247 9.72967 14.9476C9.72967 14.9476 9.72967 14.9476 9.7125 14.9648C9.51507 15.3256 8.71676 15.569 8.3505 15.6951C7.682 15.9354 6.96925 16.0272 6.26172 15.9643C6.15013 15.9471 6.12438 15.9499 6.09577 15.9643C6.06715 15.9786 6.09577 16.0101 6.12724 16.0387C6.27031 16.1332 6.41337 16.2163 6.56216 16.2965C7.00511 16.5383 7.4734 16.7304 7.9585 16.8692C10.4708 17.5623 13.2978 17.0525 15.1834 15.1767C16.6656 13.7046 17.1863 11.6742 17.1863 9.64079C17.1863 9.56347 17.2808 9.51765 17.3351 9.47755C17.7101 9.18512 18.0407 8.83976 18.3166 8.45228C18.3643 8.39452 18.3888 8.32098 18.3852 8.24608C18.3852 8.20312 18.3852 8.21171 18.3309 8.23462Z" fill="#FFFDFA"/>
</svg>
