<svg width="25" height="25" viewBox="0 0 25 25" fill="none" xmlns="http://www.w3.org/2000/svg">
<rect x="0.750488" width="24.1" height="24.1" rx="12.05" fill="#000041"/>
<rect x="0.750488" width="24.1" height="24.1" rx="12.05" fill="white" fill-opacity="1"/>
<path d="M19.5035 8.73562C19.3461 8.14408 18.8806 7.67741 18.2884 7.51748C17.2176 7.23047 12.9212 7.23047 12.9212 7.23047C12.9212 7.23047 8.62706 7.23047 7.55406 7.51748C6.96402 7.67522 6.49854 8.14189 6.33901 8.73562C6.05273 9.80917 6.05273 12.0505 6.05273 12.0505C6.05273 12.0505 6.05273 14.2918 6.33901 15.3653C6.49636 15.9569 6.96183 16.4235 7.55406 16.5835C8.62706 16.8705 12.9212 16.8705 12.9212 16.8705C12.9212 16.8705 17.2176 16.8705 18.2884 16.5835C18.8785 16.4257 19.3439 15.9591 19.5035 15.3653C19.7897 14.2918 19.7897 12.0505 19.7897 12.0505C19.7897 12.0505 19.7897 9.80917 19.5035 8.73562Z" fill="#000041"/>
<path d="M11.5488 14.1165L15.1175 12.0505L11.5488 9.98444V14.1165Z" fill="#000041"/>
<path d="M11.5488 14.1165L15.1175 12.0505L11.5488 9.98444V14.1165Z" fill="white" fill-opacity="1"/>
</svg>
