<svg width="26" height="30" viewBox="0 0 26 30" fill="none" xmlns="http://www.w3.org/2000/svg">
<g id="Group 40007">
<path id="Vector" d="M4.68067 13.161C4.1824 12.5509 3.67041 11.9035 3.14468 11.2071C2.207 9.9752 1.2144 8.59811 0.590586 7.39365C0.433653 7.08959 0.48858 6.70314 0.727903 6.45597C0.975074 6.20684 1.35171 6.14407 1.66558 6.29904C2.61111 6.76591 3.66845 7.45446 4.68067 8.16262C4.96707 8.36271 5.24955 8.56476 5.52615 8.76289C7.42896 10.1498 8.99045 11.4288 10.3793 12.6509C11.7662 13.873 12.9883 15.05 13.8809 15.9877C14.7715 16.9254 15.3325 17.6238 15.5993 19.2323C15.1952 19.2951 14.8088 19.507 14.4321 19.8659C14.0731 20.2524 13.8711 20.6467 13.8162 21.0508C12.2076 20.8213 11.4916 20.2799 10.5343 19.4069C9.57895 18.534 8.37449 17.3373 7.12491 15.9779C6.33828 15.1167 5.52811 14.1928 4.68067 13.161Z" fill="#FC7A03"/>
<path id="Vector_2" d="M17.6574 19.9308C18.2282 20.3525 18.7245 20.9312 19.1286 24.7192C15.3779 24.2229 14.8267 23.707 14.4324 23.1283C14.0361 22.5496 13.8164 21.8964 13.8164 21.0509C13.8713 20.6468 14.0734 20.2525 14.4324 19.866C14.809 19.5071 15.1955 19.2952 15.5996 19.2324C16.4352 19.2677 17.0885 19.5169 17.6574 19.9308Z" fill="#000041"/>
<path id="Vector_3" d="M25.2512 7.7695H20.857C19.4231 7.7695 18.2559 6.6023 18.2559 5.15852V1.05078C18.5325 1.17044 18.7875 1.33718 19.0091 1.54708C20.9022 3.36751 22.805 5.18598 24.698 6.9966C24.9334 7.22023 25.1197 7.48309 25.2512 7.7695Z" fill="#FFFDFA"/>
<path id="Vector_4" d="M18.2564 1.05175V5.15948C18.2564 6.60327 19.4236 7.77046 20.8576 7.77046H25.2517C25.4145 8.11572 25.4989 8.49432 25.4989 8.88273V26.5672C25.4989 28.0012 24.3415 29.1683 22.8977 29.1683H7.29066C5.84883 29.1683 4.68164 28.0012 4.68164 26.5672V13.1611C5.52908 14.193 6.33925 15.1169 7.12588 15.9781C8.37546 17.3375 9.57993 18.5341 10.5353 19.4071C11.4926 20.28 12.2086 20.8214 13.8171 21.051C13.8171 21.8964 14.0368 22.5497 14.4331 23.1284C14.8274 23.7071 15.3786 24.223 19.1293 24.7193C18.7252 20.9313 18.2289 20.3526 17.6581 19.9308C17.0892 19.5169 16.436 19.2678 15.6003 19.2325C15.3335 17.6239 14.7725 16.9256 13.8819 15.9879C12.9893 15.0502 11.7672 13.8732 10.3803 12.6511C8.99143 11.429 7.42994 10.15 5.52712 8.76307C5.25052 8.56494 4.96804 8.36289 4.68164 8.16476V3.43125C4.68164 1.99727 5.84883 0.830078 7.29066 0.830078H17.2089C17.5737 0.830078 17.9288 0.906583 18.2564 1.04979V1.05175Z" fill="#FFFDFA"/>
<g id="Vector_5">
<path d="M25.2516 7.76953H20.8574" stroke="#000041" stroke-linecap="round" stroke-linejoin="round"/>
<path d="M25.2516 7.76953H20.8574" stroke="black" stroke-opacity="0.2" stroke-linecap="round" stroke-linejoin="round"/>
</g>
<g id="Vector_6">
<path d="M18.2559 1.05078V5.16048" stroke="#000041" stroke-linecap="round" stroke-linejoin="round"/>
<path d="M18.2559 1.05078V5.16048" stroke="black" stroke-opacity="0.2" stroke-linecap="round" stroke-linejoin="round"/>
</g>
<g id="Vector_7">
<path d="M20.857 7.77114C19.4231 7.77114 18.2559 6.60394 18.2559 5.16016" stroke="#000041" stroke-linecap="round" stroke-linejoin="round"/>
<path d="M20.857 7.77114C19.4231 7.77114 18.2559 6.60394 18.2559 5.16016" stroke="black" stroke-opacity="0.2" stroke-linecap="round" stroke-linejoin="round"/>
</g>
<g id="Vector_8">
<path d="M4.68164 8.16476V3.43125C4.68164 1.99727 5.84883 0.830078 7.29262 0.830078H17.2108C17.8817 0.830078 18.5251 1.08706 19.0116 1.54609C20.9046 3.36652 22.8075 5.18498 24.7005 6.9956C25.2144 7.49191 25.5008 8.17261 25.5008 8.88077V26.5652C25.5008 27.9992 24.3434 29.1664 22.8997 29.1664H7.29262C5.84883 29.1664 4.68164 27.9992 4.68164 26.5652V13.1552" stroke="#000041" stroke-linecap="round" stroke-linejoin="round"/>
<path d="M4.68164 8.16476V3.43125C4.68164 1.99727 5.84883 0.830078 7.29262 0.830078H17.2108C17.8817 0.830078 18.5251 1.08706 19.0116 1.54609C20.9046 3.36652 22.8075 5.18498 24.7005 6.9956C25.2144 7.49191 25.5008 8.17261 25.5008 8.88077V26.5652C25.5008 27.9992 24.3434 29.1664 22.8997 29.1664H7.29262C5.84883 29.1664 4.68164 27.9992 4.68164 26.5652V13.1552" stroke="black" stroke-opacity="0.2" stroke-linecap="round" stroke-linejoin="round"/>
</g>
<g id="Vector_9">
<path d="M1.66559 6.29905C2.8779 6.89735 4.27657 7.8625 5.52615 8.7629C7.42897 10.1518 8.99046 11.4288 10.3793 12.6509C11.7682 13.873 12.9903 15.05 13.8809 15.9877C14.7715 16.9254 15.3325 17.6238 15.5993 19.2323C15.1952 19.2971 14.8088 19.5089 14.4321 19.8659C14.0731 20.2524 13.8711 20.6467 13.8162 21.0508C12.2076 20.8213 11.4916 20.2779 10.5343 19.405C9.57896 18.532 8.3745 17.3374 7.12491 15.976C5.87533 14.6067 4.56101 13.0805 3.14469 11.2052C2.20701 9.97325 1.21441 8.5942 0.588633 7.3917C0.4317 7.08764 0.486627 6.70315 0.72595 6.45402C0.975082 6.20489 1.35172 6.14211 1.66363 6.29708L1.66559 6.29905Z" stroke="#000041" stroke-linecap="round" stroke-linejoin="round"/>
<path d="M1.66559 6.29905C2.8779 6.89735 4.27657 7.8625 5.52615 8.7629C7.42897 10.1518 8.99046 11.4288 10.3793 12.6509C11.7682 13.873 12.9903 15.05 13.8809 15.9877C14.7715 16.9254 15.3325 17.6238 15.5993 19.2323C15.1952 19.2971 14.8088 19.5089 14.4321 19.8659C14.0731 20.2524 13.8711 20.6467 13.8162 21.0508C12.2076 20.8213 11.4916 20.2779 10.5343 19.405C9.57896 18.532 8.3745 17.3374 7.12491 15.976C5.87533 14.6067 4.56101 13.0805 3.14469 11.2052C2.20701 9.97325 1.21441 8.5942 0.588633 7.3917C0.4317 7.08764 0.486627 6.70315 0.72595 6.45402C0.975082 6.20489 1.35172 6.14211 1.66363 6.29708L1.66559 6.29905Z" stroke="black" stroke-opacity="0.2" stroke-linecap="round" stroke-linejoin="round"/>
</g>
<g id="Vector_10">
<path d="M13.8164 21.0508C13.8164 21.8963 14.0361 22.5495 14.4324 23.1282C14.8267 23.7069 15.3799 24.2228 19.1286 24.7191" stroke="#000041" stroke-linecap="round" stroke-linejoin="round"/>
<path d="M13.8164 21.0508C13.8164 21.8963 14.0361 22.5495 14.4324 23.1282C14.8267 23.7069 15.3799 24.2228 19.1286 24.7191" stroke="black" stroke-opacity="0.2" stroke-linecap="round" stroke-linejoin="round"/>
</g>
<g id="Vector_11">
<path d="M15.5996 19.2305C16.4353 19.2677 17.0885 19.5149 17.6594 19.9288C18.2282 20.3525 18.7265 20.9312 19.1306 24.7173" stroke="#000041" stroke-linecap="round" stroke-linejoin="round"/>
<path d="M15.5996 19.2305C16.4353 19.2677 17.0885 19.5149 17.6594 19.9288C18.2282 20.3525 18.7265 20.9312 19.1306 24.7173" stroke="black" stroke-opacity="0.2" stroke-linecap="round" stroke-linejoin="round"/>
</g>
</g>
</svg>
